<svg t="1717142042233" class="icon" viewBox="0 0 1024 1024" version="1.1" xmlns="http://www.w3.org/2000/svg" p-id="4456" width="200" height="200"><path d="M322.43 349a31.9 31.9 0 0 0 22.69-9.44L479.5 204.42l0.87 530.71a32 32 0 0 0 32 31.95h0.05A32 32 0 0 0 544.38 735l-0.87-531.1 136.9 135.8a32 32 0 0 0 45.07-45.44l-191.56-190-0.35-0.33c-0.25-0.24-0.5-0.49-0.76-0.72l-0.07-0.07-0.5-0.43-0.61-0.52-0.13-0.11-0.58-0.45-0.51-0.39-0.18-0.14-0.62-0.43-0.47-0.32-0.23-0.16-0.62-0.38-0.47-0.29-0.27-0.16L527 99l-0.51-0.28-0.28-0.15-0.56-0.28L525 98l-0.27-0.13-0.52-0.22-0.66-0.28-0.25-0.11-0.48-0.18-0.76-0.28-0.23-0.08-0.44-0.14-0.84-0.27-0.2-0.06-0.42-0.11-0.9-0.24h-0.18l-0.43-0.09-0.92-0.2h-0.16l-0.47-0.08-0.9-0.15h-0.15l-0.57-0.07-0.82-0.1h-0.14l-0.73-0.05H508.87l-0.69 0.05h-0.07l-0.87 0.11-0.59 0.07h-0.08l-1 0.17-0.48 0.08h-0.1l-1 0.21-0.44 0.1h-0.12l-0.92 0.25-0.45 0.12h-0.14l-0.84 0.27-0.49 0.16-0.17 0.06-0.73 0.28-0.55 0.21-0.2 0.09-0.62 0.27-0.62 0.27-0.22 0.11-0.51 0.25-0.68 0.34-0.23 0.13-0.42 0.24-0.73 0.41-0.21 0.13-0.35 0.22h-0.06l-0.72 0.45-0.19 0.13-0.33 0.23-0.08 0.06-0.72 0.5-0.14 0.11-0.36 0.28-0.73 0.57-0.09 0.07-0.5 0.43-0.65 0.56q-0.57 0.52-1.12 1.07l-188.95 190A32 32 0 0 0 322.43 349z" fill="#666666" p-id="4457"></path><path d="M928.75 605a32 32 0 0 0-32 32v224h-767.5V637a32 32 0 0 0-64 0v256a32 32 0 0 0 32 32h831.5a32 32 0 0 0 32-32V637a32 32 0 0 0-32-32z" fill="#666666" p-id="4458"></path></svg>